<svg xmlns="http://www.w3.org/2000/svg" viewBox="0 0 100 100" width="100" height="100">
  <!-- 背景の円 -->
  <circle cx="50" cy="50" r="48" fill="#ff0000" />
  
  <!-- 内側の円 -->
  <circle cx="50" cy="50" r="40" fill="#ffffff" />
  
  <!-- 猫の顔 -->
  <g transform="translate(20, 20) scale(0.6)">
    <!-- 顔の輪郭 -->
    <path d="M50,10 C25,10 10,30 10,50 C10,75 30,90 50,90 C70,90 90,75 90,50 C90,30 75,10 50,10 Z" fill="#ffb6c1" />
    
    <!-- 耳 -->
    <path d="M25,15 L15,35 L35,30 Z" fill="#ffb6c1" />
    <path d="M75,15 L85,35 L65,30 Z" fill="#ffb6c1" />
    
    <!-- 目 -->
    <ellipse cx="35" cy="45" rx="8" ry="10" fill="#ff0000" />
    <ellipse cx="65" cy="45" rx="8" ry="10" fill="#ff0000" />
    
    <!-- 瞳 -->
    <ellipse cx="35" cy="42" rx="3" ry="4" fill="#000000" />
    <ellipse cx="65" cy="42" rx="3" ry="4" fill="#000000" />
    
    <!-- 鼻 -->
    <path d="M50,55 L45,60 L55,60 Z" fill="#ff69b4" />
    
    <!-- 口 -->
    <path d="M40,65 Q50,75 60,65" fill="none" stroke="#ff69b4" stroke-width="2" />
    
    <!-- ヒゲ -->
    <line x1="30" y1="60" x2="15" y2="55" stroke="#000000" stroke-width="1" />
    <line x1="30" y1="62" x2="15" y2="62" stroke="#000000" stroke-width="1" />
    <line x1="30" y1="64" x2="15" y2="69" stroke="#000000" stroke-width="1" />
    
    <line x1="70" y1="60" x2="85" y2="55" stroke="#000000" stroke-width="1" />
    <line x1="70" y1="62" x2="85" y2="62" stroke="#000000" stroke-width="1" />
    <line x1="70" y1="64" x2="85" y2="69" stroke="#000000" stroke-width="1" />
  </g>
  
  <!-- 帽子 -->
  <path d="M30,30 Q50,10 70,30 L65,25 Q50,15 35,25 Z" fill="#800000" />
  <rect x="35" y="25" width="30" height="10" fill="#800000" />
</svg> 